# xmcd
#
# Track frame offsets:
#	150
#	14243
#	32881
#	50140
#	66796
#	83267
#	96596
#	113669
#	131306
#	148485
#	167617
#	178319
#	191881
#	213648
#	225039
#	237110
#	248419
#
# Disc length: 3574 seconds
#
# Revision: 2
# Processed by: cddbd v1.5.2PL0 Copyright (c) Steve Scherf et al.
# Submitted via: audiograbber 1.83.01
#
DISCID=ef0df411
DTITLE=Billy Joe Shaver - Greatest Hits
DYEAR=2007
DGENRE=Country
TTITLE0=Good Ol' USA
TTITLE1=Georgia On A Fast Train
TTITLE2=Freedom's Child
TTITLE3=Try And Try Again
TTITLE4=Step On Up (W/ Eddie Shaver)
TTITLE5=Honky Tonk Heroes
TTITLE6=Hottest Thing In Town
TTITLE7=That's What She Said Last Night
TTITLE8=When Fallen Angels Fly
TTITLE9=I Couldn't Be Me Without You
TTITLE10=Black Rose
TTITLE11=Light A Candle For Me
TTITLE12=Ride Me Down Easy
TTITLE13=Melody
TTITLE14=Old Five And Dimers
TTITLE15=You Asked Me To
TTITLE16=Live Forever (W/ Big And Rich)
EXTD=
EXTT0=
EXTT1=
EXTT2=
EXTT3=
EXTT4=
EXTT5=
EXTT6=
EXTT7=
EXTT8=
EXTT9=
EXTT10=
EXTT11=
EXTT12=
EXTT13=
EXTT14=
EXTT15=
EXTT16=
PLAYORDER=
